# xmcd
#
# Track frame offsets:
#	150
#	2582
#	8017
#	10920
#	14812
#	19485
#	23320
#	26850
#	32445
#	38000
#	45162
#	50650
#	60900
#	63450
#	68400
#	69875
#	75125
#	80230
#	84065
#	86760
#	95557
#	105650
#	106785
#	110132
#	114537
#	116362
#	118362
#	122287
#	132150
#	145287
#	151767
#
# Disc length: 2258 seconds
#
# Revision: 1
# Processed by: cddbd v1.5.1PL0 Copyright (c) Steve Scherf et al.
# Submitted via: CDex 1.50Beta5
#
DISCID=7408d01f
DTITLE=Various Artist - 写楽
DYEAR=1900
DGENRE=Soundtrack
TTITLE0=御興太鼓
TTITLE1=トンボのテーマ
TTITLE2=江戸芝居町
TTITLE3=あらたまの年もわかやぎ
TTITLE4=浮世絵
TTITLE5=春が気ままになるならば
TTITLE6=出逢い
TTITLE7=蔦重の意地
TTITLE8=いつも吉原五丁目
TTITLE9=蔦重の疑い
TTITLE10=”じょろこま”-長唄
TTITLE11=”さあさおせおせ”-長唄
TTITLE12=再会
TTITLE13=風と砂絵
TTITLE14=首
TTITLE15=江戸の青春
TTITLE16=浮世の人
TTITLE17=写楽誕生
TTITLE18=さてもさてもおもしろや
TTITLE19=歌舞伎下座音楽
TTITLE20=はかない恋
TTITLE21=俺も描くぞ
TTITLE22=大首絵
TTITLE23=われを忘れて
TTITLE24=恋の通い路
TTITLE25=富士が見える
TTITLE26=
TTITLE27=別れ
TTITLE28=いつも吉原五丁目
TTITLE29=葬列
TTITLE30=青春郡像
EXTD=
EXTT0=
EXTT1=
EXTT2=
EXTT3=
EXTT4=
EXTT5=
EXTT6=
EXTT7=
EXTT8=
EXTT9=
EXTT10=
EXTT11=
EXTT12=
EXTT13=
EXTT14=
EXTT15=
EXTT16=
EXTT17=
EXTT18=
EXTT19=
EXTT20=
EXTT21=
EXTT22=
EXTT23=
EXTT24=
EXTT25=
EXTT26=
EXTT27=
EXTT28=
EXTT29=
EXTT30=
PLAYORDER=
